<?xml version="1.0" encoding="UTF-8" standalone="no"?>
<svg
   xmlns:dc="http://purl.org/dc/elements/1.1/"
   xmlns:cc="http://creativecommons.org/ns#"
   xmlns:rdf="http://www.w3.org/1999/02/22-rdf-syntax-ns#"
   xmlns:svg="http://www.w3.org/2000/svg"
   xmlns="http://www.w3.org/2000/svg"
   version="1.1"
   id="svg2"
   xml:space="preserve"
   width="211.77515"
   height="130.04005"
   viewBox="0 0 211.77514 130.04006"><metadata
     id="metadata8"><rdf:RDF><cc:Work
         rdf:about=""><dc:format>image/svg+xml</dc:format><dc:type
           rdf:resource="http://purl.org/dc/dcmitype/StillImage" /><dc:title></dc:title></cc:Work></rdf:RDF></metadata><defs
     id="defs6"><clipPath
       clipPathUnits="userSpaceOnUse"
       id="clipPath18"><path
         d="M 0,297 H 210 V 0 H 0 Z"
         id="path16" /></clipPath></defs><g
     id="g10"
     transform="matrix(1.3333333,0,0,-1.3333333,-27.222799,234.35533)"><g
       id="g20"
       transform="translate(41.4571,78.7015)"><path
         d="m 0,0 c -6.269,0 -11.351,5.082 -11.351,11.351 0,6.268 5.082,11.35 11.351,11.35 l 72.662,-0.056 c 4.686,0 8.484,3.797 8.484,8.483 0,4.685 -3.798,8.484 -8.484,8.484 l -80.135,1.444 c -7.493,0 -13.567,6.074 -13.567,13.568 0,7.493 0,42.441 33.353,42.441 l 101.081,-0.31 c 10.782,0 19.523,-8.74 19.523,-19.524 0,0 12.986,-57.816 -3.434,-67.979 -6.876,-4.256 -23.041,-9.928 -30.265,-9.711 z"
         style="fill:#878787;fill-opacity:1;fill-rule:nonzero;stroke:none"
         id="path22" /></g><g
       id="g24"
       transform="translate(41.4571,78.7015)"><path
         d="m 0,0 c -6.269,0 -11.351,5.082 -11.351,11.351 0,6.268 5.082,11.35 11.351,11.35 l 72.662,-0.056 c 4.686,0 8.484,3.797 8.484,8.483 0,4.685 -3.798,8.484 -8.484,8.484 l -80.135,1.444 c -7.493,0 -13.567,6.074 -13.567,13.568 0,7.493 0,42.441 33.353,42.441 l 101.081,-0.31 c 10.782,0 19.523,-8.74 19.523,-19.524 0,0 12.986,-57.816 -3.434,-67.979 -6.876,-4.256 -23.041,-9.928 -30.265,-9.711 z"
         style="fill:none;stroke:#575756;stroke-width:1;stroke-linecap:butt;stroke-linejoin:miter;stroke-miterlimit:10;stroke-dasharray:none;stroke-opacity:1"
         id="path26" /></g><g
       id="g28"
       transform="translate(138.7715,95.2699)"><path
         d="M 0,0 C 2.979,0 5.396,-2.415 5.396,-5.395 5.396,-8.374 2.979,-10.79 0,-10.79 h -79.606 c -2.98,0 -5.396,2.416 -5.396,5.395 0,2.98 2.416,5.395 5.396,5.395 z"
         style="fill:#52c3f1;fill-opacity:1;fill-rule:nonzero;stroke:none"
         id="path30" /></g><g
       id="g32"
       transform="translate(137.7344,171.4925)"><path
         d="m 0,0 c 7.105,0 12.865,-5.76 12.865,-12.865 0,-7.106 -5.76,-12.866 -12.865,-12.866 h -73.795 c -7.105,0 -12.865,5.76 -12.865,12.866 C -86.66,-5.76 -80.9,0 -73.795,0 Z"
         style="fill:#52c3f1;fill-opacity:1;fill-rule:nonzero;stroke:none"
         id="path34" /></g><g
       id="g36"
       transform="translate(96.7608,138.0394)"><path
         d="m 0,0 c 3.518,0 6.37,-2.853 6.37,-6.37 0,-3.519 -2.852,-6.37 -6.37,-6.37 h -52.346 c -3.517,0 -6.37,2.851 -6.37,6.37 0,3.517 2.853,6.37 6.37,6.37 z"
         style="fill:#52c3f1;fill-opacity:1;fill-rule:nonzero;stroke:none"
         id="path38" /></g><g
       id="g40"
       transform="translate(64.5284,56.1624)"><path
         d="m 0,0 c 2.414,0 4.361,2.415 4.361,4.829 0,2.415 -1.958,4.372 -4.372,4.372 l -0.255,0.081 c -1.426,0 -2.583,1.156 -2.583,2.582 0,1.427 1.157,2.583 2.583,2.583 l 123.911,-0.899 c 6.316,0 11.436,-5.12 11.436,-11.437 0,-6.316 -5.12,-11.436 -11.436,-11.436 l -21.601,0.245 c -3.654,0 -6.617,-2.963 -6.617,-6.617 0,-3.655 2.963,-6.617 6.617,-6.617 l 2.992,0.14 c 8.139,0 14.737,-6.597 14.737,-14.736 0,-8.139 -6.598,-14.736 -14.737,-14.736 l -144.87,0.082 c -4.624,0 -8.373,3.748 -8.373,8.373 0,4.624 3.749,8.373 8.373,8.373 l 12.143,0.063 c 3.158,0 5.718,2.56 5.718,5.718 0,3.158 -2.56,5.719 -5.718,5.719 l -19.126,-0.316 c -6.317,0 -11.437,5.12 -11.437,11.437 0,6.316 5.12,11.436 11.437,11.436 z"
         style="fill:#878787;fill-opacity:1;fill-rule:nonzero;stroke:none"
         id="path42" /></g><g
       id="g44"
       transform="translate(64.5284,56.1624)"><path
         d="m 0,0 c 2.414,0 4.361,2.415 4.361,4.829 0,2.415 -1.958,4.372 -4.372,4.372 l -0.255,0.081 c -1.426,0 -2.583,1.156 -2.583,2.582 0,1.427 1.157,2.583 2.583,2.583 l 123.911,-0.899 c 6.316,0 11.436,-5.12 11.436,-11.437 0,-6.316 -5.12,-11.436 -11.436,-11.436 l -21.601,0.245 c -3.654,0 -6.617,-2.963 -6.617,-6.617 0,-3.655 2.963,-6.617 6.617,-6.617 l 2.992,0.14 c 8.139,0 14.737,-6.597 14.737,-14.736 0,-8.139 -6.598,-14.736 -14.737,-14.736 l -144.87,0.082 c -4.624,0 -8.373,3.748 -8.373,8.373 0,4.624 3.749,8.373 8.373,8.373 l 12.143,0.063 c 3.158,0 5.718,2.56 5.718,5.718 0,3.158 -2.56,5.719 -5.718,5.719 l -19.126,-0.316 c -6.317,0 -11.437,5.12 -11.437,11.437 0,6.316 5.12,11.436 11.437,11.436 z"
         style="fill:none;stroke:#575756;stroke-width:1;stroke-linecap:butt;stroke-linejoin:miter;stroke-miterlimit:10;stroke-dasharray:none;stroke-opacity:1"
         id="path46" /></g><g
       id="g48"
       transform="translate(112.8438,54.8773)"><path
         d="m 0,0 c -2.61,0 -4.727,2.117 -4.727,4.728 0,2.61 2.117,4.726 4.727,4.726 H 71.674 C 74.284,9.454 76.4,7.338 76.4,4.728 76.4,2.117 74.284,0 71.674,0 Z"
         style="fill:#52c3f1;fill-opacity:1;fill-rule:nonzero;stroke:none"
         id="path50" /></g><g
       id="g52"
       transform="translate(105.1915,23.0111)"><path
         d="m 0,0 c -5.857,0 -10.606,4.749 -10.606,10.606 0,5.858 4.749,10.607 10.606,10.607 h 36.465 c 5.858,0 10.607,-4.749 10.607,-10.607 C 47.072,4.749 42.323,0 36.465,0 Z"
         style="fill:#52c3f1;fill-opacity:1;fill-rule:nonzero;stroke:none"
         id="path54" /></g><g
       id="g56"
       transform="translate(31.752,9.9427)"><path
         d="m 0,0 c -1.979,0 -3.585,1.604 -3.585,3.585 0,1.98 1.606,3.586 3.585,3.586 h 82.557 c 1.979,0 3.585,-1.606 3.585,-3.586 C 86.142,1.604 84.536,0 82.557,0 Z"
         style="fill:#52c3f1;fill-opacity:1;fill-rule:nonzero;stroke:none"
         id="path58" /></g><g
       id="g60"
       transform="translate(178.9571,196.2269)"><path
         d="M 0,0 C 11.353,0 20.556,9.203 20.556,20.555 20.556,31.907 11.353,41.109 0,41.109 l -53.037,0.45 c -5.677,0 -22.785,2.718 -24.143,22.571 -1.193,17.45 18.466,20.796 24.143,20.796 l 63.646,0.235 c 2.838,0 5.139,2.301 5.139,5.14 0,2.838 -2.301,5.138 -5.139,5.138 l -158.387,-0.236 c -31.254,1.079 -33.844,-41.216 0,-42.064 l 19.316,-0.918 c 2.839,0 5.14,-2.301 5.14,-5.139 0,-2.838 -2.301,-5.139 -5.14,-5.139 l -0.682,-0.151 c -6.713,0 -12.156,-5.442 -12.156,-12.155 0,-6.714 5.443,-12.157 12.156,-12.157 l 3.182,0.061 c 2.691,0 4.871,-2.181 4.871,-4.871 0,-2.691 -2.18,-4.871 -4.871,-4.871 l -21.165,-0.362 c -5.677,0 -10.277,-4.602 -10.277,-10.278 0,-5.676 4.6,-10.277 10.277,-10.277 h 120.496 c 1.18,0 2.137,0.957 2.137,2.137 0,1.18 -0.957,2.137 -2.137,2.137 l -6.938,0.076 c -1.771,0 -3.641,1.597 -3.704,3.366 -0.095,2.646 1.821,4.509 3.591,4.509 z"
         style="fill:#878787;fill-opacity:1;fill-rule:nonzero;stroke:none"
         id="path62" /></g><g
       id="g64"
       transform="translate(178.9571,196.2269)"><path
         d="M 0,0 C 11.353,0 20.556,9.203 20.556,20.555 20.556,31.907 11.353,41.109 0,41.109 l -53.037,0.45 c -5.677,0 -22.785,2.718 -24.143,22.571 -1.193,17.45 18.466,20.796 24.143,20.796 l 63.646,0.235 c 2.838,0 5.139,2.301 5.139,5.14 0,2.838 -2.301,5.138 -5.139,5.138 l -158.387,-0.236 c -31.254,1.079 -33.844,-41.216 0,-42.064 l 19.316,-0.918 c 2.839,0 5.14,-2.301 5.14,-5.139 0,-2.838 -2.301,-5.139 -5.14,-5.139 l -0.682,-0.151 c -6.713,0 -12.156,-5.442 -12.156,-12.155 0,-6.714 5.443,-12.157 12.156,-12.157 l 3.182,0.061 c 2.691,0 4.871,-2.181 4.871,-4.871 0,-2.691 -2.18,-4.871 -4.871,-4.871 l -21.165,-0.362 c -5.677,0 -10.277,-4.602 -10.277,-10.278 0,-5.676 4.6,-10.277 10.277,-10.277 h 120.496 c 1.18,0 2.137,0.957 2.137,2.137 0,1.18 -0.957,2.137 -2.137,2.137 l -6.938,0.076 c -1.771,0 -3.641,1.597 -3.704,3.366 -0.095,2.646 1.821,4.509 3.591,4.509 z"
         style="fill:none;stroke:#575756;stroke-width:1;stroke-linecap:butt;stroke-linejoin:miter;stroke-miterlimit:10;stroke-dasharray:none;stroke-opacity:1"
         id="path66" /></g><g
       id="g68"
       transform="translate(91.0157,286.5276)"><path
         d="M 0,0 C 5.586,0 10.114,-4.528 10.114,-10.114 10.114,-15.7 5.586,-20.229 0,-20.229 h -66.829 c -5.586,0 -10.114,4.529 -10.114,10.115 0,5.586 4.528,10.114 10.114,10.114 z"
         style="fill:#52c3f1;fill-opacity:1;fill-rule:nonzero;stroke:none"
         id="path70" /></g><g
       id="g72"
       transform="translate(75.0264,260.6243)"><path
         d="M 0,0 C 1.334,0 2.415,-1.081 2.415,-2.414 2.415,-3.748 1.334,-4.829 0,-4.829 h -49.062 c -1.334,0 -2.415,1.081 -2.415,2.415 0,1.333 1.081,2.414 2.415,2.414 z"
         style="fill:#52c3f1;fill-opacity:1;fill-rule:nonzero;stroke:none"
         id="path74" /></g><g
       id="g76"
       transform="translate(97.6202,238.8968)"><path
         d="m 0,0 c 4.61,0 8.347,-3.737 8.347,-8.348 0,-4.609 -3.737,-8.346 -8.347,-8.346 h -3.329 c -4.61,0 -8.347,3.737 -8.347,8.346 0,4.611 3.737,8.348 8.347,8.348 z"
         style="fill:#52c3f1;fill-opacity:1;fill-rule:nonzero;stroke:none"
         id="path78" /></g><g
       id="g80"
       transform="translate(182.4649,225.3499)"><path
         d="M 0,0 C 2.698,0 4.886,-2.188 4.886,-4.886 4.886,-7.585 2.698,-9.772 0,-9.772 h -38.038 c -2.699,0 -4.887,2.187 -4.887,4.886 0,2.698 2.188,4.886 4.887,4.886 z"
         style="fill:#52c3f1;fill-opacity:1;fill-rule:nonzero;stroke:none"
         id="path82" /></g><g
       id="g84"
       transform="translate(156.3565,140.5491)"><path
         d="m 0,0 c 4.904,0 8.88,-3.976 8.88,-8.88 0,-4.904 -3.976,-8.88 -8.88,-8.88 h -31.53 c -4.905,0 -8.88,3.976 -8.88,8.88 0,4.904 3.975,8.88 8.88,8.88 z"
         style="fill:#52c3f1;fill-opacity:1;fill-rule:nonzero;stroke:none"
         id="path86" /></g><g
       id="g88"
       transform="translate(24.1866,35.7904)"><path
         d="m 0,0 c -4.658,0 -8.434,3.775 -8.434,8.434 0,4.658 3.776,8.433 8.434,8.433 h 43.867 c 4.658,0 8.435,-3.775 8.435,-8.433 C 52.302,3.775 48.525,0 43.867,0 Z"
         style="fill:#52c3f1;fill-opacity:1;fill-rule:nonzero;stroke:none"
         id="path90" /></g><g
       id="g92"
       transform="translate(129.7217,211.6273)"><path
         d="m 0,0 c 5.423,0 9.818,-4.396 9.818,-9.818 0,-5.423 -4.395,-9.82 -9.818,-9.82 h -58.165 c -5.423,0 -9.819,4.397 -9.819,9.82 0,5.422 4.396,9.818 9.819,9.818 z"
         style="fill:#52c3f1;fill-opacity:1;fill-rule:nonzero;stroke:none"
         id="path94" /></g><g
       id="g96"
       transform="translate(154.4288,117.9095)"><path
         d="m 0,0 c 4.904,0 8.88,-3.976 8.88,-8.88 0,-4.904 -3.976,-8.88 -8.88,-8.88 h -2.881 c -4.904,0 -8.881,3.976 -8.881,8.88 0,4.904 3.977,8.88 8.881,8.88 z"
         style="fill:#52c3f1;fill-opacity:1;fill-rule:nonzero;stroke:none"
         id="path98" /></g><g
       id="g100"
       transform="translate(85.7491,48.3079)"><path
         d="m 0,0 c -3.12,0 -5.648,2.529 -5.648,5.648 0,3.12 2.528,5.649 5.648,5.649 h 2.354 c 3.121,0 5.649,-2.529 5.649,-5.649 C 8.003,2.529 5.475,0 2.354,0 Z"
         style="fill:#52c3f1;fill-opacity:1;fill-rule:nonzero;stroke:none"
         id="path102" /></g></g></svg>
