<svg xmlns="http://www.w3.org/2000/svg" viewBox="0 0 199.18 84.22"><defs><style>.cls-1{fill:#878787;stroke:#575756;stroke-miterlimit:10;}.cls-2{fill:#feca33;}</style></defs><g id="Ebene_2" data-name="Ebene 2"><g id="Ebene_1-2" data-name="Ebene 1"><path class="cls-1" d="M74.24,18.34c3.06,0,5.52-3.05,5.52-6.11A5.52,5.52,0,0,0,74.23,6.7L36.86,7a3.27,3.27,0,1,1,0-6.54H182.18a14.48,14.48,0,0,1,0,29l-5.94.39a8.38,8.38,0,1,0,0,16.75l3.79-.18a18.66,18.66,0,0,1,0,37.31l-156.21-.1a10.6,10.6,0,1,1,0-21.2l15.37-.08a7.24,7.24,0,1,0,0-14.48L15,48.26a14.48,14.48,0,1,1,0-28.95Z"/><path class="cls-2" d="M25.07,38.72a6,6,0,0,1,0-12H67.92a6,6,0,1,1,0,12Z"/><path class="cls-2" d="M56.41,77.88a7.92,7.92,0,1,1,0-15.84H151.6a7.92,7.92,0,1,1,0,15.84Z"/><path class="cls-2" d="M112.62,15.67a4.54,4.54,0,0,1,0-9.08H167a4.54,4.54,0,1,1,0,9.08Z"/><path class="cls-2" d="M94.3,50.09a10.68,10.68,0,1,1,0-21.35h55.53a10.68,10.68,0,0,1,0,21.35Z"/></g></g></svg>