<?xml version="1.0" encoding="UTF-8" standalone="no"?>
<svg
   xmlns:dc="http://purl.org/dc/elements/1.1/"
   xmlns:cc="http://creativecommons.org/ns#"
   xmlns:rdf="http://www.w3.org/1999/02/22-rdf-syntax-ns#"
   xmlns:svg="http://www.w3.org/2000/svg"
   xmlns="http://www.w3.org/2000/svg"
   version="1.1"
   id="svg2"
   xml:space="preserve"
   width="219.39066"
   height="122.836"
   viewBox="0 0 219.39066 122.836"><metadata
     id="metadata8"><rdf:RDF><cc:Work
         rdf:about=""><dc:format>image/svg+xml</dc:format><dc:type
           rdf:resource="http://purl.org/dc/dcmitype/StillImage" /><dc:title></dc:title></cc:Work></rdf:RDF></metadata><defs
     id="defs6"><clipPath
       clipPathUnits="userSpaceOnUse"
       id="clipPath18"><path
         d="M 0,297 H 210 V 0 H 0 Z"
         id="path16" /></clipPath></defs><g
     id="g10"
     transform="matrix(1.3333333,0,0,-1.3333333,-20.280933,127.294)"><g
       id="g12"><g
         id="g20"
         transform="translate(149.8106,186.224)"><path
           d="M 0,0 C 6.97,0 12.619,-5.649 12.619,-12.619 12.619,-19.589 6.97,-25.238 0,-25.238 l -6.578,0.048 c -5.209,0 -9.433,-4.224 -9.433,-9.433 0,-5.21 4.224,-9.433 9.433,-9.433 l 22.147,0.298 c 8.331,0 15.085,-6.754 15.085,-15.085 0,-8.331 -6.754,-15.085 -15.085,-15.085 L -93.833,-74.21 c -11.988,0 -21.707,9.719 -21.707,21.707 l -0.631,8.511 c -0.562,7.577 -2.215,15.092 -5.461,21.962 -3.806,8.053 -2.379,17.966 4.282,24.626 6.358,6.357 15.678,7.947 23.517,4.768 7.447,-3.02 15.27,-5.01 23.303,-5.252 z"
           style="fill:#878787;fill-opacity:1;fill-rule:nonzero;stroke:none"
           id="path22" /></g><g
         id="g24"
         transform="translate(149.8106,186.224)"><path
           d="M 0,0 C 6.97,0 12.619,-5.649 12.619,-12.619 12.619,-19.589 6.97,-25.238 0,-25.238 l -6.578,0.048 c -5.209,0 -9.433,-4.224 -9.433,-9.433 0,-5.21 4.224,-9.433 9.433,-9.433 l 22.147,0.298 c 8.331,0 15.085,-6.754 15.085,-15.085 0,-8.331 -6.754,-15.085 -15.085,-15.085 L -93.833,-74.21 c -11.988,0 -21.707,9.719 -21.707,21.707 l -0.631,8.511 c -0.562,7.577 -2.215,15.092 -5.461,21.962 -3.806,8.053 -2.379,17.966 4.282,24.626 6.358,6.357 15.678,7.947 23.517,4.768 7.447,-3.02 15.27,-5.01 23.303,-5.252 z"
           style="fill:none;stroke:#575756;stroke-width:1;stroke-linecap:butt;stroke-linejoin:miter;stroke-miterlimit:10;stroke-dasharray:none;stroke-opacity:1"
           id="path26" /></g><g
         id="g28"
         transform="translate(54.9981,150.5355)"><path
           d="m 0,0 c -5.174,0 -9.368,4.194 -9.368,9.368 0,5.174 4.194,9.368 9.368,9.368 h 33.264 c 5.174,0 9.368,-4.194 9.368,-9.368 C 42.632,4.194 38.438,0 33.264,0 Z"
           style="fill:#ededed;fill-opacity:1;fill-rule:nonzero;stroke:none"
           id="path30" /></g><g
         id="g32"
         transform="translate(97.1416,118.7493)"><path
           d="m 0,0 c -5.174,0 -9.368,4.194 -9.368,9.368 0,5.175 4.194,9.369 9.368,9.369 h 11.948 c 5.174,0 9.368,-4.194 9.368,-9.369 C 21.316,4.194 17.122,0 11.948,0 Z"
           style="fill:#ededed;fill-opacity:1;fill-rule:nonzero;stroke:none"
           id="path34" /></g><g
         id="g36"
         transform="translate(127.5,162.1898)"><path
           d="m 0,0 c -3.911,0 -7.082,3.171 -7.082,7.082 0,3.911 3.171,7.082 7.082,7.082 h 3.73 c 3.912,0 7.083,-3.171 7.083,-7.082 C 10.813,3.171 7.642,0 3.73,0 Z"
           style="fill:#ededed;fill-opacity:1;fill-rule:nonzero;stroke:none"
           id="path38" /></g><g
         id="g40"
         transform="translate(85.3047,75.2415)"><path
           d="m 0,0 c 3.347,0 6.045,3.347 6.045,6.693 0,3.347 -2.713,6.06 -6.06,6.06 l -10.423,-0.184 c -1.977,0 -3.581,1.603 -3.581,3.58 0,1.978 1.604,3.58 3.581,3.58 h 86.31 c 8.756,0 15.853,-7.097 15.853,-15.852 0,-8.756 -7.097,-15.853 -15.853,-15.853 l -6.498,-0.419 c -5.065,0 -9.172,-4.107 -9.172,-9.172 0,-5.066 4.107,-9.172 9.172,-9.172 l 4.147,0.195 c 11.283,0 20.428,-9.145 20.428,-20.428 0,-11.281 -9.145,-20.426 -20.428,-20.426 H 13.067 c -6.41,0 -11.606,5.196 -11.606,11.606 0,6.409 5.196,11.605 11.606,11.605 h 12.059 c 4.378,0 7.926,3.549 7.926,7.927 0,4.377 -3.548,7.926 -7.926,7.926 h -78.867 c -8.755,0 -15.853,7.098 -15.853,15.853 0,8.755 7.098,15.852 15.853,15.852 z"
           style="fill:#878787;fill-opacity:1;fill-rule:nonzero;stroke:none"
           id="path42" /></g><g
         id="g44"
         transform="translate(85.3047,75.2415)"><path
           d="m 0,0 c 3.347,0 6.045,3.347 6.045,6.693 0,3.347 -2.713,6.06 -6.06,6.06 l -10.423,-0.184 c -1.977,0 -3.581,1.603 -3.581,3.58 0,1.978 1.604,3.58 3.581,3.58 h 86.31 c 8.756,0 15.853,-7.097 15.853,-15.852 0,-8.756 -7.097,-15.853 -15.853,-15.853 l -6.498,-0.419 c -5.065,0 -9.172,-4.107 -9.172,-9.172 0,-5.066 4.107,-9.172 9.172,-9.172 l 4.147,0.195 c 11.283,0 20.428,-9.145 20.428,-20.428 0,-11.281 -9.145,-20.426 -20.428,-20.426 H 13.067 c -6.41,0 -11.606,5.196 -11.606,11.606 0,6.409 5.196,11.605 11.606,11.605 h 12.059 c 4.378,0 7.926,3.549 7.926,7.927 0,4.377 -3.548,7.926 -7.926,7.926 h -78.867 c -8.755,0 -15.853,7.098 -15.853,15.853 0,8.755 7.098,15.852 15.853,15.852 z"
           style="fill:none;stroke:#575756;stroke-width:1;stroke-linecap:butt;stroke-linejoin:miter;stroke-miterlimit:10;stroke-dasharray:none;stroke-opacity:1"
           id="path46" /></g><g
         id="g48"
         transform="translate(61.3379,58.5257)"><path
           d="m 0,0 c -3.619,0 -6.553,2.934 -6.553,6.552 0,3.619 2.934,6.552 6.553,6.552 h 46.923 c 3.618,0 6.552,-2.933 6.552,-6.552 C 53.475,2.934 50.541,0 46.923,0 Z"
           style="fill:#ededed;fill-opacity:1;fill-rule:nonzero;stroke:none"
           id="path50" /></g><g
         id="g52"
         transform="translate(113.4659,6.8958)"><path
           d="m 0,0 c -4.787,0 -8.668,3.88 -8.668,8.667 0,4.787 3.881,8.668 8.668,8.668 h 29.333 c 4.787,0 8.668,-3.881 8.668,-8.668 C 38.001,3.88 34.12,0 29.333,0 Z"
           style="fill:#ededed;fill-opacity:1;fill-rule:nonzero;stroke:none"
           id="path54" /></g><g
         id="g56"
         transform="translate(125.4903,71.8695)"><path
           d="m 0,0 c -2.745,0 -4.971,2.226 -4.971,4.97 0,2.745 2.226,4.97 4.971,4.97 h 17.646 c 2.745,0 4.969,-2.225 4.969,-4.97 C 22.615,2.226 20.391,0 17.646,0 Z"
           style="fill:#ededed;fill-opacity:1;fill-rule:nonzero;stroke:none"
           id="path58" /></g><g
         id="g60"
         transform="translate(43.1407,276.3333)"><path
           d="m 0,0 c -9.92,0 -17.963,-8.042 -17.963,-17.963 0,-9.921 8.043,-17.963 17.963,-17.963 l 24.056,-0.203 c 4.96,0 8.981,-4.021 8.981,-8.981 0,-4.96 -4.021,-8.982 -8.981,-8.982 l -47.121,0.143 c -2.481,0 -4.492,-2.011 -4.492,-4.491 0,-2.48 2.011,-4.491 4.492,-4.491 l 105.463,0.57 c 4.646,0 8.413,3.765 8.413,8.412 0,4.645 -3.767,8.412 -8.413,8.412 l -2.798,0.035 c -2.48,0 -4.491,2.011 -4.491,4.491 0,2.481 2.011,4.491 4.491,4.491 l 60.649,-0.181 c 5.866,0 10.623,4.756 10.623,10.623 0,5.866 -4.757,10.623 -10.623,10.623 l -80.211,0.289 c -2.35,0 -4.257,1.906 -4.257,4.257 0,2.351 1.907,4.257 4.257,4.257 l 10.978,-0.157 c 4.961,0 8.981,4.022 8.981,8.982 0,4.961 -4.02,8.981 -8.981,8.981 l -47.742,0.31 c -1.032,0 -1.868,-0.836 -1.868,-1.867 0,-1.033 0.836,-1.868 1.868,-1.868 l 6.064,-0.067 c 1.547,0 3.181,-1.395 3.236,-2.941 C 32.657,2.409 30.982,0.78 29.436,0.78 Z"
           style="fill:#878787;fill-opacity:1;fill-rule:nonzero;stroke:none"
           id="path62" /></g><g
         id="g64"
         transform="translate(43.1407,276.3333)"><path
           d="m 0,0 c -9.92,0 -17.963,-8.042 -17.963,-17.963 0,-9.921 8.043,-17.963 17.963,-17.963 l 24.056,-0.203 c 4.96,0 8.981,-4.021 8.981,-8.981 0,-4.96 -4.021,-8.982 -8.981,-8.982 l -47.121,0.143 c -2.481,0 -4.492,-2.011 -4.492,-4.491 0,-2.48 2.011,-4.491 4.492,-4.491 l 105.463,0.57 c 4.646,0 8.413,3.765 8.413,8.412 0,4.645 -3.767,8.412 -8.413,8.412 l -2.798,0.035 c -2.48,0 -4.491,2.011 -4.491,4.491 0,2.481 2.011,4.491 4.491,4.491 l 60.649,-0.181 c 5.866,0 10.623,4.756 10.623,10.623 0,5.866 -4.757,10.623 -10.623,10.623 l -80.211,0.289 c -2.35,0 -4.257,1.906 -4.257,4.257 0,2.351 1.907,4.257 4.257,4.257 l 10.978,-0.157 c 4.961,0 8.981,4.022 8.981,8.982 0,4.961 -4.02,8.981 -8.981,8.981 l -47.742,0.31 c -1.032,0 -1.868,-0.836 -1.868,-1.867 0,-1.033 0.836,-1.868 1.868,-1.868 l 6.064,-0.067 c 1.547,0 3.181,-1.395 3.236,-2.941 C 32.657,2.409 30.982,0.78 29.436,0.78 Z"
           style="fill:none;stroke:#575756;stroke-width:1;stroke-linecap:butt;stroke-linejoin:miter;stroke-miterlimit:10;stroke-dasharray:none;stroke-opacity:1"
           id="path66" /></g><g
         id="g68"
         transform="translate(45.1504,248.6234)"><path
           d="m 0,0 c -4.882,0 -8.839,3.957 -8.839,8.839 0,4.882 3.957,8.839 8.839,8.839 h 37.144 c 4.881,0 8.838,-3.957 8.838,-8.839 C 45.982,3.957 42.025,0 37.144,0 Z"
           style="fill:#ededed;fill-opacity:1;fill-rule:nonzero;stroke:none"
           id="path70" /></g><g
         id="g72"
         transform="translate(23.0078,215.8206)"><path
           d="m 0,0 c -1.166,0 -2.11,0.944 -2.11,2.11 0,1.165 0.944,2.11 2.11,2.11 H 59.989 C 61.154,4.22 62.1,3.275 62.1,2.11 62.1,0.944 61.154,0 59.989,0 Z"
           style="fill:#ededed;fill-opacity:1;fill-rule:nonzero;stroke:none"
           id="path74" /></g><g
         id="g76"
         transform="translate(101.0655,242.431)"><path
           d="m 0,0 c -2.358,0 -4.27,1.912 -4.27,4.271 0,2.357 1.912,4.269 4.27,4.269 h 30.578 c 2.359,0 4.27,-1.912 4.27,-4.269 C 34.848,1.912 32.937,0 30.578,0 Z"
           style="fill:#ededed;fill-opacity:1;fill-rule:nonzero;stroke:none"
           id="path78" /></g></g></g></svg>
