<svg xmlns="http://www.w3.org/2000/svg" viewBox="0 0 194.33 67.09"><defs><style>.cls-1{fill:#878787;stroke:#575756;stroke-miterlimit:10;}.cls-2{fill:#52c3f1;}</style></defs><g id="Ebene_2" data-name="Ebene 2"><g id="Ebene_1-2" data-name="Ebene 1"><path class="cls-1" d="M58.75,15c2.42,0,4.36-2.42,4.36-4.83a4.36,4.36,0,0,0-4.37-4.37l-.25-.08a2.59,2.59,0,0,1,0-5.17l123.91.9a11.44,11.44,0,0,1,0,22.87L160.8,24a6.62,6.62,0,1,0,0,13.23l3-.14a14.74,14.74,0,1,1,0,29.47L18.92,66.51a8.37,8.37,0,0,1,0-16.74l12.14-.07a5.72,5.72,0,1,0,0-11.43l-19.12.31a11.44,11.44,0,1,1,0-22.87Z"/><path class="cls-2" d="M107.07,16.23a4.73,4.73,0,1,1,0-9.45h71.67a4.73,4.73,0,1,1,0,9.45Z"/><path class="cls-2" d="M99.42,48.1a10.61,10.61,0,1,1,0-21.21h36.46a10.61,10.61,0,1,1,0,21.21Z"/><path class="cls-2" d="M26,61.17A3.59,3.59,0,1,1,26,54h82.55a3.59,3.59,0,1,1,0,7.17Z"/><path class="cls-2" d="M18.41,35.32a8.44,8.44,0,0,1,0-16.87H62.28a8.44,8.44,0,0,1,0,16.87Z"/><path class="cls-2" d="M80,22.8a5.65,5.65,0,0,1,0-11.29h2.36a5.65,5.65,0,1,1,0,11.29Z"/></g></g></svg>