<?xml version="1.0" encoding="UTF-8" standalone="no"?>
<svg
   xmlns:dc="http://purl.org/dc/elements/1.1/"
   xmlns:cc="http://creativecommons.org/ns#"
   xmlns:rdf="http://www.w3.org/1999/02/22-rdf-syntax-ns#"
   xmlns:svg="http://www.w3.org/2000/svg"
   xmlns="http://www.w3.org/2000/svg"
   version="1.1"
   id="svg2"
   xml:space="preserve"
   width="269.18188"
   height="122.69755"
   viewBox="0 0 269.18188 122.69755"><metadata
     id="metadata8"><rdf:RDF><cc:Work
         rdf:about=""><dc:format>image/svg+xml</dc:format><dc:type
           rdf:resource="http://purl.org/dc/dcmitype/StillImage" /><dc:title></dc:title></cc:Work></rdf:RDF></metadata><defs
     id="defs6"><clipPath
       clipPathUnits="userSpaceOnUse"
       id="clipPath18"><path
         d="M 0,297 H 210 V 0 H 0 Z"
         id="path16" /></clipPath></defs><g
     id="g10"
     transform="matrix(1.3333333,0,0,-1.3333333,-5.3274665,248.04706)"><g
       id="g20"
       transform="translate(19.4756,95.1263)"><path
         d="m 0,0 c -8.273,0 -14.98,6.707 -14.98,14.981 0,8.274 6.707,14.981 14.98,14.981 l 55.036,1.845 c 6.184,0 11.197,5.013 11.197,11.198 0,6.183 -5.013,11.197 -11.197,11.197 l -38.827,0.392 c -9.89,0 -17.908,8.017 -17.908,17.908 0,9.89 8.018,17.907 17.908,17.907 L 158.621,90 c 14.232,0 25.769,-11.537 25.769,-25.769 0,0 8.187,-38.606 -13.485,-52.02 -9.076,-5.617 -30.413,-13.104 -39.948,-12.817 z"
         style="fill:#878787;fill-opacity:1;fill-rule:nonzero;stroke:none"
         id="path22" /></g><g
       id="g24"
       transform="translate(19.4756,95.1263)"><path
         d="m 0,0 c -8.273,0 -14.98,6.707 -14.98,14.981 0,8.274 6.707,14.981 14.98,14.981 l 55.036,1.845 c 6.184,0 11.197,5.013 11.197,11.198 0,6.183 -5.013,11.197 -11.197,11.197 l -38.827,0.392 c -9.89,0 -17.908,8.017 -17.908,17.908 0,9.89 8.018,17.907 17.908,17.907 L 158.621,90 c 14.232,0 25.769,-11.537 25.769,-25.769 0,0 8.187,-38.606 -13.485,-52.02 -9.076,-5.617 -30.413,-13.104 -39.948,-12.817 z"
         style="fill:none;stroke:#575756;stroke-width:1;stroke-linecap:butt;stroke-linejoin:miter;stroke-miterlimit:10;stroke-dasharray:none;stroke-opacity:1"
         id="path26" /></g><g
       id="g28"
       transform="translate(55.0176,118.515)"><path
         d="m 0,0 c 3.933,0 7.121,-3.188 7.121,-7.121 0,-3.933 -3.188,-7.121 -7.121,-7.121 h -25.284 c -3.933,0 -7.121,3.188 -7.121,7.121 0,3.933 3.188,7.121 7.121,7.121 z"
         style="fill:#feca32;fill-opacity:1;fill-rule:nonzero;stroke:none"
         id="path30" /></g><g
       id="g32"
       transform="translate(159.6192,175.2503)"><path
         d="M 0,0 C 9.378,0 16.981,-7.603 16.981,-16.981 16.981,-26.359 9.378,-33.963 0,-33.963 h -21.656 c -9.379,0 -16.982,7.604 -16.982,16.982 0,9.378 7.603,16.981 16.982,16.981 z"
         style="fill:#feca32;fill-opacity:1;fill-rule:nonzero;stroke:none"
         id="path34" /></g><g
       id="g36"
       transform="translate(165.1983,118.515)"><path
         d="m 0,0 c 4.644,0 8.407,-3.765 8.407,-8.407 0,-4.644 -3.763,-8.408 -8.407,-8.408 h -69.091 c -4.642,0 -8.407,3.764 -8.407,8.408 0,4.642 3.765,8.407 8.407,8.407 z"
         style="fill:#feca32;fill-opacity:1;fill-rule:nonzero;stroke:none"
         id="path38" /></g><g
       id="g40"
       transform="translate(78.2032,68.0667)"><path
         d="m 0,0 c 3.057,0 5.521,3.057 5.521,6.113 0,3.056 -2.478,5.533 -5.534,5.533 l -37.373,-0.342 c -1.805,0 -3.269,1.464 -3.269,3.269 0,1.806 1.464,3.27 3.269,3.27 h 145.32 c 7.995,0 14.477,-6.482 14.477,-14.478 0,-7.995 -6.482,-14.477 -14.477,-14.477 l -5.935,-0.383 c -4.626,0 -8.376,-3.75 -8.376,-8.376 0,-4.626 3.75,-8.377 8.376,-8.377 l 3.788,0.179 c 10.303,0 18.654,-8.353 18.654,-18.656 0,-10.302 -8.351,-18.655 -18.654,-18.655 l -156.212,0.105 c -5.853,0 -10.599,4.745 -10.599,10.599 0,5.854 4.746,10.599 10.599,10.599 l 15.371,0.08 c 3.998,0 7.239,3.241 7.239,7.239 0,3.997 -3.241,7.238 -7.239,7.238 l -24.211,-0.398 c -7.996,0 -14.477,6.481 -14.477,14.478 0,7.995 6.481,14.476 14.477,14.476 z"
         style="fill:#878787;fill-opacity:1;fill-rule:nonzero;stroke:none"
         id="path42" /></g><g
       id="g44"
       transform="translate(78.2032,68.0667)"><path
         d="m 0,0 c 3.057,0 5.521,3.057 5.521,6.113 0,3.056 -2.478,5.533 -5.534,5.533 l -37.373,-0.342 c -1.805,0 -3.269,1.464 -3.269,3.269 0,1.806 1.464,3.27 3.269,3.27 h 145.32 c 7.995,0 14.477,-6.482 14.477,-14.478 0,-7.995 -6.482,-14.477 -14.477,-14.477 l -5.935,-0.383 c -4.626,0 -8.376,-3.75 -8.376,-8.376 0,-4.626 3.75,-8.377 8.376,-8.377 l 3.788,0.179 c 10.303,0 18.654,-8.353 18.654,-18.656 0,-10.302 -8.351,-18.655 -18.654,-18.655 l -156.212,0.105 c -5.853,0 -10.599,4.745 -10.599,10.599 0,5.854 4.746,10.599 10.599,10.599 l 15.371,0.08 c 3.998,0 7.239,3.241 7.239,7.239 0,3.997 -3.241,7.238 -7.239,7.238 l -24.211,-0.398 c -7.996,0 -14.477,6.481 -14.477,14.478 0,7.995 6.481,14.476 14.477,14.476 z"
         style="fill:none;stroke:#575756;stroke-width:1;stroke-linecap:butt;stroke-linejoin:miter;stroke-miterlimit:10;stroke-dasharray:none;stroke-opacity:1"
         id="path46" /></g><g
       id="g48"
       transform="translate(29.0313,47.6878)"><path
         d="m 0,0 c -3.305,0 -5.984,2.679 -5.984,5.983 0,3.305 2.679,5.985 5.984,5.985 h 42.852 c 3.304,0 5.983,-2.68 5.983,-5.985 C 48.835,2.679 46.156,0 42.852,0 Z"
         style="fill:#feca32;fill-opacity:1;fill-rule:nonzero;stroke:none"
         id="path50" /></g><g
       id="g52"
       transform="translate(60.3682,8.5345)"><path
         d="m 0,0 c -4.372,0 -7.916,3.544 -7.916,7.915 0,4.372 3.544,7.916 7.916,7.916 h 95.193 c 4.372,0 7.916,-3.544 7.916,-7.916 C 103.109,3.544 99.565,0 95.193,0 Z"
         style="fill:#feca32;fill-opacity:1;fill-rule:nonzero;stroke:none"
         id="path54" /></g><g
       id="g56"
       transform="translate(116.5821,70.7386)"><path
         d="m 0,0 c -2.507,0 -4.539,2.032 -4.539,4.539 0,2.506 2.032,4.538 4.539,4.538 h 54.422 c 2.507,0 4.539,-2.032 4.539,-4.538 C 58.961,2.032 56.929,0 54.422,0 Z"
         style="fill:#feca32;fill-opacity:1;fill-rule:nonzero;stroke:none"
         id="path58" /></g><g
       id="g60"
       transform="translate(182.3057,210.3929)"><path
         d="M 0,0 C 12.745,0 23.076,10.332 23.076,23.077 23.076,35.822 12.745,46.153 0,46.153 l -59.546,0.505 c -6.372,0 -11.538,5.165 -11.538,11.538 0,6.372 5.166,11.538 11.538,11.538 h 4.515 c 3.186,0 5.769,2.583 5.769,5.77 0,3.186 -2.583,5.769 -5.769,5.769 l -110.88,-2.332 c -5.969,0 -10.807,-4.838 -10.807,-10.807 0,-5.968 4.838,-10.807 10.807,-10.807 l 63.65,1.128 c 3.186,0 5.769,-2.583 5.769,-5.768 0,-3.187 -2.583,-5.77 -5.769,-5.77 l -42.728,0.003 c -7.537,0 -13.648,-6.11 -13.648,-13.648 0,-7.537 6.111,-13.647 13.648,-13.647 l 3.571,0.068 c 3.021,0 5.469,-2.449 5.469,-5.469 0,-3.02 -2.448,-5.469 -5.469,-5.469 L -165.18,8.349 c -6.373,0 -11.538,-5.165 -11.538,-11.538 0,-6.373 5.165,-11.539 11.538,-11.539 h 135.281 c 1.325,0 2.399,1.075 2.399,2.4 0,1.325 -1.074,2.398 -2.399,2.398 l -7.79,0.086 c -1.988,0 -4.087,1.793 -4.159,3.779 -0.106,2.97 2.045,5.062 4.033,5.062 z"
         style="fill:#878787;fill-opacity:1;fill-rule:nonzero;stroke:none"
         id="path62" /></g><g
       id="g64"
       transform="translate(182.3057,210.3929)"><path
         d="M 0,0 C 12.745,0 23.076,10.332 23.076,23.077 23.076,35.822 12.745,46.153 0,46.153 l -59.546,0.505 c -6.372,0 -11.538,5.165 -11.538,11.538 0,6.372 5.166,11.538 11.538,11.538 h 4.515 c 3.186,0 5.769,2.583 5.769,5.77 0,3.186 -2.583,5.769 -5.769,5.769 l -110.88,-2.332 c -5.969,0 -10.807,-4.838 -10.807,-10.807 0,-5.968 4.838,-10.807 10.807,-10.807 l 63.65,1.128 c 3.186,0 5.769,-2.583 5.769,-5.768 0,-3.187 -2.583,-5.77 -5.769,-5.77 l -42.728,0.003 c -7.537,0 -13.648,-6.11 -13.648,-13.648 0,-7.537 6.111,-13.647 13.648,-13.647 l 3.571,0.068 c 3.021,0 5.469,-2.449 5.469,-5.469 0,-3.02 -2.448,-5.469 -5.469,-5.469 L -165.18,8.349 c -6.373,0 -11.538,-5.165 -11.538,-11.538 0,-6.373 5.165,-11.539 11.538,-11.539 h 135.281 c 1.325,0 2.399,1.075 2.399,2.4 0,1.325 -1.074,2.398 -2.399,2.398 l -7.79,0.086 c -1.988,0 -4.087,1.793 -4.159,3.779 -0.106,2.97 2.045,5.062 4.033,5.062 z"
         style="fill:none;stroke:#575756;stroke-width:1;stroke-linecap:butt;stroke-linejoin:miter;stroke-miterlimit:10;stroke-dasharray:none;stroke-opacity:1"
         id="path66" /></g><g
       id="g68"
       transform="translate(184.085,244.9075)"><path
         d="M 0,0 C 6.271,0 11.354,-5.084 11.354,-11.355 11.354,-17.627 6.271,-22.711 0,-22.711 h -18.182 c -6.271,0 -11.355,5.084 -11.355,11.356 0,6.271 5.084,11.355 11.355,11.355 z"
         style="fill:#feca32;fill-opacity:1;fill-rule:nonzero;stroke:none"
         id="path70" /></g><g
       id="g72"
       transform="translate(64.376,281.2376)"><path
         d="m 0,0 c 1.497,0 2.711,-1.214 2.711,-2.711 0,-1.497 -1.214,-2.71 -2.711,-2.71 h -21.049 c -1.497,0 -2.711,1.213 -2.711,2.71 0,1.497 1.214,2.711 2.711,2.711 z"
         style="fill:#feca32;fill-opacity:1;fill-rule:nonzero;stroke:none"
         id="path74" /></g><g
       id="g76"
       transform="translate(134.3867,250.3099)"><path
         d="m 0,0 c 5.176,0 9.371,-4.195 9.371,-9.371 0,-5.176 -4.195,-9.371 -9.371,-9.371 h -86.934 c -5.175,0 -9.371,4.195 -9.371,9.371 0,5.176 4.196,9.371 9.371,9.371 z"
         style="fill:#feca32;fill-opacity:1;fill-rule:nonzero;stroke:none"
         id="path78" /></g><g
       id="g80"
       transform="translate(107.8116,212.5872)"><path
         d="m 0,0 c 3.029,0 5.485,-2.456 5.485,-5.485 0,-3.03 -2.456,-5.486 -5.485,-5.486 h -83.119 c -3.03,0 -5.486,2.456 -5.486,5.486 0,3.029 2.456,5.485 5.486,5.485 z"
         style="fill:#feca32;fill-opacity:1;fill-rule:nonzero;stroke:none"
         id="path82" /></g><g
       id="g84"
       transform="translate(94.543,178.3783)"><path
         d="m 0,0 c 3.933,0 7.121,-3.188 7.121,-7.121 0,-3.933 -3.188,-7.121 -7.121,-7.121 h -25.283 c -3.934,0 -7.121,3.188 -7.121,7.121 0,3.933 3.187,7.121 7.121,7.121 z"
         style="fill:#feca32;fill-opacity:1;fill-rule:nonzero;stroke:none"
         id="path86" /></g><g
       id="g88"
       transform="translate(98.2579,36.3197)"><path
         d="m 0,0 c -5.896,0 -10.676,4.78 -10.676,10.677 0,5.895 4.78,10.676 10.676,10.676 h 55.531 c 5.897,0 10.676,-4.781 10.676,-10.676 C 66.207,4.78 61.428,0 55.531,0 Z"
         style="fill:#feca32;fill-opacity:1;fill-rule:nonzero;stroke:none"
         id="path90" /></g></g></svg>
