<svg xmlns="http://www.w3.org/2000/svg" viewBox="0 0 179.43 75.39"><defs><style>.cls-1{fill:#878787;stroke:#575756;stroke-miterlimit:10;}.cls-2{fill:#ededed;}</style></defs><g id="Ebene_2" data-name="Ebene 2"><g id="Ebene_1-2" data-name="Ebene 1"><path class="cls-1" d="M28.06,12a18,18,0,1,0,0,35.93l24.05.2a9,9,0,0,1,0,18L5,65.91a4.49,4.49,0,0,0,0,9l105.46-.56a8.42,8.42,0,1,0,0-16.83l-2.79,0a4.5,4.5,0,0,1,0-9l60.65.19a10.63,10.63,0,0,0,0-21.25L88.1,27.13a4.26,4.26,0,1,1,0-8.51l11,.15a9,9,0,1,0,0-18L51.33.5a1.87,1.87,0,1,0,0,3.74l6.06.06a3.37,3.37,0,0,1,3.24,2.94c.08,2.32-1.59,3.94-3.14,3.94Z"/><path class="cls-2" d="M30.07,39.67a8.84,8.84,0,1,1,0-17.67H67.21a8.84,8.84,0,1,1,0,17.67Z"/><path class="cls-2" d="M7.92,72.48a2.11,2.11,0,0,1,0-4.22h60a2.11,2.11,0,0,1,0,4.22Z"/><path class="cls-2" d="M86,45.87a4.27,4.27,0,0,1,0-8.54h30.58a4.27,4.27,0,0,1,0,8.54Z"/></g></g></svg>