<?xml version="1.0" encoding="UTF-8" standalone="no"?>
<svg
   xmlns:dc="http://purl.org/dc/elements/1.1/"
   xmlns:cc="http://creativecommons.org/ns#"
   xmlns:rdf="http://www.w3.org/1999/02/22-rdf-syntax-ns#"
   xmlns:svg="http://www.w3.org/2000/svg"
   xmlns="http://www.w3.org/2000/svg"
   xmlns:sodipodi="http://sodipodi.sourceforge.net/DTD/sodipodi-0.dtd"
   xmlns:inkscape="http://www.inkscape.org/namespaces/inkscape"
   id="Ebene_1"
   data-name="Ebene 1"
   viewBox="0 0 97.669996 113.51514"
   version="1.1"
   sodipodi:docname="player.svg"
   width="97.669998"
   height="113.51514"
   inkscape:version="1.0.1 (3bc2e813f5, 2020-09-07, custom)">
  <metadata
     id="metadata13">
    <rdf:RDF>
      <cc:Work
         rdf:about="">
        <dc:format>image/svg+xml</dc:format>
        <dc:type
           rdf:resource="http://purl.org/dc/dcmitype/StillImage" />
        <dc:title></dc:title>
      </cc:Work>
    </rdf:RDF>
  </metadata>
  <sodipodi:namedview
     pagecolor="#ffffff"
     bordercolor="#666666"
     borderopacity="1"
     objecttolerance="10"
     gridtolerance="10"
     guidetolerance="10"
     inkscape:pageopacity="0"
     inkscape:pageshadow="2"
     inkscape:window-width="1920"
     inkscape:window-height="1003"
     id="namedview11"
     showgrid="false"
     fit-margin-top="0"
     fit-margin-left="0"
     fit-margin-right="0"
     fit-margin-bottom="0"
     inkscape:zoom="8.611509"
     inkscape:cx="49.077287"
     inkscape:cy="75.332361"
     inkscape:window-x="0"
     inkscape:window-y="41"
     inkscape:window-maximized="1"
     inkscape:current-layer="Ebene_1" />
  <defs
     id="defs4">
    <style
       id="style2">.cls-1{fill:#587b8b;}.cls-2{fill:#68aee1;}</style>
  </defs>
  <path
     class="cls-1"
     d="m 96.589999,40.982535 a 114.45,114.45 0 0 0 0,30.77 87.66,87.66 0 0 1 0.84,11.1 l 0.23,28.749995 a 1.9,1.9 0 0 1 -3.58,0.9 l -0.08,-0.18 A 18.91,18.91 0 0 0 77.27,102.25254 h -11.8 a 1.81,1.81 0 0 1 -1.81,-1.81 v -1.390005 a 1.8,1.8 0 0 1 1.81,-1.8 h 15.3 a 1.89,1.89 0 0 0 1.89,-1.89 v 0 a 3.11,3.11 0 0 0 -3.11,-3.11 H 58.32 a 2.66,2.66 0 0 1 -2.66,-2.66 v -1.68 a 2.66,2.66 0 0 1 2.66,-2.66 h 14.26 c 3,0 -5.25,-1.92 -9.09,-4.61 a 13.06,13.06 0 0 0 -7.49,-2.47 H 35.94 a 1.85,1.85 0 0 1 -1.7,-2.57 c 1.83,-4.23 7.09,-7.33 2.5,-7.32 l -25,0.21 a 11.74,11.74 0 1 1 0,-23.48 l 25,0.2 c 4.59,0 -0.67,-3.09 -2.5,-7.32 a 1.85,1.85 0 0 1 1.7,-2.57 H 56 a 13.06,13.06 0 0 0 7.49,-2.47 c 3.84,-2.69 12.13,-4.6 9.09,-4.6 H 58.32 a 2.66,2.66 0 0 1 -2.66,-2.66 v -1.68 a 2.66,2.66 0 0 1 2.66,-2.66 h 21.23 a 3.11,3.11 0 0 0 3.11,-3.11 1.88,1.88 0 0 0 -1.89,-1.89 h -15.3 a 1.81,1.81 0 0 1 -1.81,-1.81 v -1.39 a 1.8,1.8 0 0 1 1.81,-1.8 h 11.8 A 18.93,18.93 0 0 0 93.999999,1.1825349 l 0.09,-0.17 a 1.9,1.9 0 0 1 3.58,0.89 l -0.2,27.6000001 a 88.78,88.78 0 0 1 -0.88,11.48 z"
     id="path6" />
  <path
     class="cls-2"
     d="m 15.66,49.252535 v 15 c 0,0 -10.94,0 -10.94,-7.5 0,-7.5 10.94,-7.5 10.94,-7.5 z"
     id="path8" />
</svg>
